<svg id="bold" enable-background="new 0 0 24 24" height="512" viewBox="0 0 24 24" width="512" xmlns="http://www.w3.org/2000/svg"><g><path d="m22.25 4h-20.5c-.965 0-1.75.785-1.75 1.75v13.5c0 .965.785 1.75 1.75 1.75h7.658c-.118.501-.429 1.314-1.262 2.146-.143.143-.186.358-.108.545.077.187.26.309.462.309h7c.202 0 .385-.122.462-.309s.034-.402-.108-.545c-.831-.831-1.151-1.644-1.275-2.146h7.671c.965 0 1.75-.785 1.75-1.75v-13.5c0-.965-.785-1.75-1.75-1.75zm-.25 13h-20v-11h20z"/></g><g><path d="m10.75 15c-.126 0-.253-.032-.367-.096-.237-.133-.383-.383-.383-.654v-5.5c0-.271.146-.521.383-.654.236-.133.528-.128.758.014l4.5 2.75c.223.136.359.379.359.64s-.136.504-.359.64l-4.5 2.75c-.12.073-.255.11-.391.11z"/></g></svg>